<svg id="Capa_1" data-name="Capa 1" xmlns="http://www.w3.org/2000/svg" width="184.045" height="88.235" viewBox="0 0 184.045 88.235">
  <path id="Trazado_189" data-name="Trazado 189" d="M46.32,26.044a.522.522,0,0,1,.489-.544H53.1a6.1,6.1,0,0,1,5.829,6.275,6.144,6.144,0,0,1-5.807,6.394h-2.73v6.666a.544.544,0,0,1-.5.544H46.809a.522.522,0,0,1-.489-.544Zm6.525,7.982A2.175,2.175,0,0,0,54.9,31.775a2.066,2.066,0,0,0-2.055-2.1H50.387v4.35Z" transform="translate(4.052 2.227)" fill="#fff"/>
  <path id="Trazado_190" data-name="Trazado 190" d="M60.35,26.044a.522.522,0,0,1,.5-.544h3.1a.533.533,0,0,1,.489.544V41.268h6.2a.522.522,0,0,1,.5.544V44.9a.522.522,0,0,1-.5.544H60.85a.522.522,0,0,1-.5-.544Z" transform="translate(5.28 2.227)" fill="#fff"/>
  <path id="Trazado_191" data-name="Trazado 191" d="M71.225,44.692l8.156-19.107a.522.522,0,0,1,.446-.315h.261a.522.522,0,0,1,.435.315l8.156,19.107a.5.5,0,0,1-.446.739H85.34c-.468,0-.674-.174-.9-.707l-.946-2.251H76.423l-.935,2.273a.979.979,0,0,1-.946.685H71.671a.5.5,0,0,1-.446-.739Zm10.712-6.079-1.979-4.676h0l-1.947,4.676Z" transform="translate(6.226 2.207)" fill="#fff"/>
  <path id="Trazado_192" data-name="Trazado 192" d="M89.21,25.781a.511.511,0,0,1,.489-.511h.652l10.4,10.875h0V26.064a.522.522,0,0,1,.489-.544h3.132a.533.533,0,0,1,.489.544V45.2a.511.511,0,0,1-.489.511h-.413a.761.761,0,0,1-.348-.141L93.332,34.307h0V44.888a.522.522,0,0,1-.5.544h-3.11a.533.533,0,0,1-.489-.544Z" transform="translate(7.804 2.207)" fill="#fff"/>
  <path id="Trazado_193" data-name="Trazado 193" d="M115.914,25.27a8.363,8.363,0,0,1,6.351,2.643.544.544,0,0,1,0,.794l-2.023,2.305a.435.435,0,0,1-.652,0,5.057,5.057,0,0,0-3.523-1.457c-2.936,0-5.1,2.675-5.1,5.851s2.175,5.764,5.133,5.764a5.263,5.263,0,0,0,3.491-1.359.468.468,0,0,1,.674,0l2,2.382a.609.609,0,0,1,0,.772,8.558,8.558,0,0,1-6.329,2.751c-5.209,0-9.4-4.513-9.4-10.19S110.705,25.27,115.914,25.27Z" transform="translate(9.32 2.207)" fill="#fff"/>
  <path id="Trazado_194" data-name="Trazado 194" d="M126.34,29.709h-3.73a.511.511,0,0,1-.489-.544V26.044a.522.522,0,0,1,.489-.544H134.18a.522.522,0,0,1,.489.544v3.088a.511.511,0,0,1-.489.544h-3.73V44.868a.533.533,0,0,1-.489.544h-3.132a.544.544,0,0,1-.489-.544Z" transform="translate(10.683 2.227)" fill="#fff"/>
  <path id="Trazado_195" data-name="Trazado 195" d="M144.1,25.27c5.209,0,9.374,4.578,9.374,10.255s-4.165,10.19-9.374,10.19-9.352-4.513-9.352-10.19S138.893,25.27,144.1,25.27Zm0,15.9a5.437,5.437,0,0,0,5.209-5.644,5.22,5.22,0,1,0-10.4,0A5.437,5.437,0,0,0,144.1,41.169Z" transform="translate(11.788 2.207)" fill="#fff"/>
  <path id="Trazado_196" data-name="Trazado 196" d="M154.84,25.781a.511.511,0,0,1,.489-.511h.652l10.4,10.875h0V26.064a.533.533,0,0,1,.5-.544H170a.544.544,0,0,1,.5.544V45.2a.511.511,0,0,1-.5.511h-.413a.772.772,0,0,1-.337-.141L158.962,34.307h0V44.888a.522.522,0,0,1-.489.544h-3.1a.544.544,0,0,1-.5-.544Z" transform="translate(13.546 2.207)" fill="#fff"/>
  <path id="Trazado_197" data-name="Trazado 197" d="M46.3,68.921l7.286-17.846a.315.315,0,0,1,.283-.185h.065a.294.294,0,0,1,.3.185l7.177,17.846c0,.152,0,.3-.217.3h-.609A.359.359,0,0,1,60.265,69l-1.936-4.72H49.336L47.455,69a.359.359,0,0,1-.326.228h-.652C46.3,69.225,46.237,69.127,46.3,68.921Zm11.636-5.644L53.914,52.945h0l-4.1,10.331Z" transform="translate(4.048 4.448)" fill="#fff"/>
  <path id="Trazado_198" data-name="Trazado 198" d="M62.591,51.347a.337.337,0,0,1,.348-.337h.4L74.629,67.039h0V51.6a.326.326,0,0,1,.3-.326H75.4a.326.326,0,0,1,.3.326V69.138a.337.337,0,0,1-.37.337h-.315s-.207-.076-11.386-16.182h0V68.888a.326.326,0,0,1-.3.326h-.446a.326.326,0,0,1-.3-.326Z" transform="translate(5.475 4.459)" fill="#fff"/>
  <path id="Trazado_199" data-name="Trazado 199" d="M79.27,51.576a.326.326,0,0,1,.283-.326h4.981c4.567,0,8.276,4.024,8.276,8.95s-3.708,8.993-8.276,8.993H79.553a.326.326,0,0,1-.283-.326ZM84.349,68.1c4.111,0,7.286-3.415,7.286-7.9s-3.175-7.852-7.286-7.852h-3.98V68.1Z" transform="translate(6.935 4.48)" fill="#fff"/>
  <path id="Trazado_200" data-name="Trazado 200" d="M95.23,51.576a.326.326,0,0,1,.3-.326h.533a.326.326,0,0,1,.315.326V68.867a.326.326,0,0,1-.337.326h-.489a.326.326,0,0,1-.3-.326Z" transform="translate(8.331 4.48)" fill="#fff"/>
  <path id="Trazado_201" data-name="Trazado 201" d="M100.851,51.347a.337.337,0,0,1,.359-.337h.391L112.889,67.04h0V51.6a.326.326,0,0,1,.3-.326h.468a.326.326,0,0,1,.3.326V69.138a.337.337,0,0,1-.37.337h-.315s-.207-.076-11.386-16.182h0V68.888a.326.326,0,0,1-.3.326h-.446a.326.326,0,0,1-.3-.326Z" transform="translate(8.822 4.459)" fill="#fff"/>
  <path id="Trazado_202" data-name="Trazado 202" d="M124.911,51c4.731,0,8.493,4.132,8.493,9.254s-3.763,9.233-8.493,9.233-8.471-4.056-8.471-9.211S120.2,51,124.911,51Zm0,17.334a7.765,7.765,0,0,0,7.46-8.08c0-4.48-3.339-8.123-7.46-8.123s-7.428,3.643-7.428,8.123S120.8,68.4,124.911,68.4Z" transform="translate(10.186 4.458)" fill="#fff"/>
  <path id="Trazado_203" data-name="Trazado 203" d="M38.464.326A1.522,1.522,0,0,0,37.138.054.935.935,0,0,0,36.7.282l-5,4.187a1.087,1.087,0,0,0-.359.587L28.144,17.2a2.175,2.175,0,0,1-.5.935l-.576.631-.141-.381a.392.392,0,0,0,0-.1l-4.785-9.1a1.479,1.479,0,0,0-1.229-.8,1.544,1.544,0,0,0-1.338.631l-3.382,4.774-.185.337-1.359,3.262a1.457,1.457,0,0,1-.239.391l-4.132,4.665a.924.924,0,0,0-.185.272L4.415,31.689H0V88.238H39.051V1.533A1.512,1.512,0,0,0,38.464.326ZM10.723,23.076a.457.457,0,0,1,.1-.152l4.089-4.633a2.175,2.175,0,0,0,.37-.6l1.327-3.262.141-.261,3.382-4.752a.739.739,0,0,1,.685-.326.761.761,0,0,1,.642.413l4.785,9.1.272.75-3.458,3.817a3.262,3.262,0,0,0-.652,1.087L18.237,35.289a3.73,3.73,0,0,1-.207.478l-.109.207-.13.228c-.054.087-.109.174-.174.261l-.1.141a2.784,2.784,0,0,1-.217.283h0a.935.935,0,0,1-.228-.076h0a.827.827,0,0,1-.207-.131l-1.968-1.7a1.762,1.762,0,0,0-1.033-.457l-6.525-.576a.707.707,0,0,1-.435-.239L5.057,32.026Zm.979,30.6V87.466H.729V51.046H10.962a1.087,1.087,0,0,0,.739.739Zm26.632,2.175V86.411h0v1.022H12.419V51.786a1.164,1.164,0,0,0,.739-.739H38.334v4.839Zm0-5.568H13.159a1.153,1.153,0,0,0-2.175,0H.729V32.418H4.4l1.968,1.794a1.414,1.414,0,0,0,.881.424l6.525.576a1.087,1.087,0,0,1,.609.272l1.925,1.751.228.174h.076l.13.076-1.522,1.6a2.088,2.088,0,0,0-.587,1.468,2,2,0,0,0,1.5,1.936L28.71,45.674a6.894,6.894,0,0,1,.9.326l8.7,4.1Zm0-.979-8.417-3.948a5.557,5.557,0,0,0-1.087-.37L16.312,41.781a1.272,1.272,0,0,1-.957-1.229,1.4,1.4,0,0,1,.391-.968l1.827-1.936h0v-.065h0l.522-.565H18.03c.087-.13.185-.25.261-.381l.054-.1c.076-.141.163-.283.228-.424s.174-.37.25-.555L22.989,24.5a2.479,2.479,0,0,1,.5-.826l3.85-4.1h0l.837-.924a2.936,2.936,0,0,0,.674-1.251L32.037,5.241a.381.381,0,0,1,.131-.207l5-4.2A.446.446,0,0,1,37.322.75.772.772,0,0,1,38.062.9a.794.794,0,0,1,.315.631Z" transform="translate(0 -0.003)" fill="#fff"/>
  <rect id="Rectángulo_557" data-name="Rectángulo 557" width="38.334" height="0.522" transform="translate(0.729 72.977)" fill="#fff"/>
  <rect id="Rectángulo_558" data-name="Rectángulo 558" width="38.334" height="0.522" transform="translate(0.729 78.241)" fill="#fff"/>
  <rect id="Rectángulo_559" data-name="Rectángulo 559" width="38.334" height="0.522" transform="translate(0.729 82.819)" fill="#fff"/>
  <rect id="Rectángulo_560" data-name="Rectángulo 560" width="38.323" height="0.522" transform="translate(0.359 66.278)" fill="#fff"/>
  <rect id="Rectángulo_561" data-name="Rectángulo 561" width="38.334" height="0.522" transform="translate(0.729 58.786)" fill="#fff"/>
</svg>
